<svg width="320" height="120" viewBox="0 0 320 120" fill="none" xmlns="http://www.w3.org/2000/svg">
  <defs>
    <linearGradient id="rl-g" x1="0" y1="0" x2="60" y2="60" gradientUnits="userSpaceOnUse">
      <stop offset="0%" stop-color="#059669"/>
      <stop offset="50%" stop-color="#0891b2"/>
      <stop offset="100%" stop-color="#7c3aed"/>
    </linearGradient>
  </defs>

  <g transform="translate(0, 30)">
    <circle cx="30" cy="30" r="26" stroke="url(#rl-g)" stroke-width="3" fill="none" opacity="0.1"/>
    <circle cx="30" cy="30" r="26" stroke="#059669" stroke-width="3" fill="none"
      stroke-dasharray="40.8 122.5" stroke-dashoffset="0" stroke-linecap="round"/>
    <circle cx="30" cy="30" r="26" stroke="#0891b2" stroke-width="3" fill="none"
      stroke-dasharray="40.8 122.5" stroke-dashoffset="-81.7" stroke-linecap="round"/>
    <circle cx="30" cy="30" r="26" stroke="#7c3aed" stroke-width="3" fill="none"
      stroke-dasharray="40.8 122.5" stroke-dashoffset="-163.4" stroke-linecap="round"/>

    <line x1="30" y1="8" x2="30" y2="20" stroke="#0891b2" stroke-width="2" stroke-linecap="round"/>
    <line x1="30" y1="40" x2="30" y2="52" stroke="#7c3aed" stroke-width="2" stroke-linecap="round"/>
    <line x1="8" y1="30" x2="20" y2="30" stroke="#059669" stroke-width="2" stroke-linecap="round"/>
    <line x1="40" y1="30" x2="52" y2="30" stroke="#0891b2" stroke-width="2" stroke-linecap="round"/>

    <circle cx="30" cy="4" r="3" fill="#059669"/>
    <circle cx="56" cy="30" r="3" fill="#0891b2"/>
    <circle cx="30" cy="56" r="3" fill="#7c3aed"/>
    <circle cx="4" cy="30" r="3" fill="#059669"/>

    <rect x="23" y="23" width="14" height="14" rx="3" stroke="url(#rl-g)" stroke-width="1.8" fill="none"/>
    <circle cx="30" cy="30" r="2.5" fill="url(#rl-g)"/>
  </g>

  <text x="78" y="52" fill="#1a1a1a" font-family="'Space Grotesk', 'Inter', system-ui, sans-serif" font-size="32" font-weight="700" letter-spacing="2">Re</text>
  <text x="132" y="52" fill="url(#rl-g)" font-family="'Space Grotesk', 'Inter', system-ui, sans-serif" font-size="32" font-weight="700" letter-spacing="2">VIVE</text>

  <text x="78" y="72" fill="#9ca3af" font-family="'Space Grotesk', 'Inter', system-ui, sans-serif" font-size="10" letter-spacing="3.5">ELECTRONICS RECYCLING</text>
</svg>
